<svg width="844" height="987" viewBox="0 0 844 987" fill="none" xmlns="http://www.w3.org/2000/svg">
<path fill-rule="evenodd" clip-rule="evenodd" d="M187.063 365.921C143.817 425.327 102.353 498.995 101.937 554.06C101.775 574.778 107.43 592.865 120.993 606.565C140.513 626.295 162.02 633.252 183.422 633.293C214.698 633.345 245.755 618.585 270.071 607.205C311.024 588.048 763.716 358.099 763.716 358.099C768.084 355.539 767.266 352.35 761.799 353.942C759.594 354.587 268.973 510.11 268.973 510.11C259.68 513.184 250.077 514.792 240.419 514.891C202.714 515.152 169.163 490.671 169.434 439.083C169.539 418.897 174.822 394.554 187.063 365.921Z" fill="black"/>
</svg>
